<svg xmlns="http://www.w3.org/2000/svg" width="20.736" height="8.686" viewBox="0 4 20.736 8.686"><defs></defs><path class="a" d="M.457,9.852V8.545A.636.636,0,0,1,.5,8.255c.027-.041.109-.061.246-.061a.515.515,0,0,1,.2.026.221.221,0,0,1,.088.143,2.951,2.951,0,0,0,.161.444,2.579,2.579,0,0,0,.279.438,1.187,1.187,0,0,0,.515.376,2.09,2.09,0,0,0,.774.131q1.365,0,1.371-.9A.7.7,0,0,0,4,8.42a.9.9,0,0,0-.389-.281,2.429,2.429,0,0,0-.414-.134c-.106-.02-.239-.048-.4-.083q-.578-.106-.81-.158a3.047,3.047,0,0,1-.525-.176,1.988,1.988,0,0,1-.521-.324,1.264,1.264,0,0,1-.481-1A1.584,1.584,0,0,1,.589,5.6a1.1,1.1,0,0,1,.366-.457,2.688,2.688,0,0,1,.463-.265,1.955,1.955,0,0,1,.521-.138c.2-.026.339-.042.431-.05s.191-.012.3-.012a2.66,2.66,0,0,1,1.213.236,2.618,2.618,0,0,1,.539-.236c.1,0,.158.023.182.068a.69.69,0,0,1,.035.272v.955a.557.557,0,0,1-.044.284c-.029.037-.112.056-.249.056-.121,0-.2-.017-.223-.049a.364.364,0,0,1-.053-.189q-.093-1-1.412-1-1.341,0-1.347.81a.712.712,0,0,0,.095.38c.063.1.032.136-.093.094L1.122,6.3l1.408.3c.307.077.627.152.962.225a2.154,2.154,0,0,1,.825.349A1.567,1.567,0,0,1,4.98,8.433a1.935,1.935,0,0,1-.131.742,1.165,1.165,0,0,1-.367.5,2.922,2.922,0,0,1-.462.293,1.719,1.719,0,0,1-.528.156c-.2.027-.343.045-.43.052s-.189.012-.3.012A2.429,2.429,0,0,1,1.342,9.8l-.311.208a.78.78,0,0,1-.351.178H.674c-.1,0-.158-.023-.182-.07A.677.677,0,0,1,.457,9.852Z"/><path class="a" d="M5.971,5.375V4.813l2.2-.1V8.8a1.294,1.294,0,0,0,.155.75c.1.132.372.2.806.2A1.4,1.4,0,0,0,10.2,9.308a1.663,1.663,0,0,0,.413-1.177V5.844c0-.223-.042-.356-.125-.4a2.034,2.034,0,0,0-.7-.068V4.813l2.2-.1V9.084q0,.335.126.4a2.078,2.078,0,0,0,.706.067v.563l-2.132.07V9.254a1.847,1.847,0,0,1-1.717.932H8.959a3.211,3.211,0,0,1-1.591-.328A1.283,1.283,0,0,1,6.8,8.639V5.844c0-.222-.042-.356-.126-.4A2.035,2.035,0,0,0,5.971,5.375Z"/><path class="a" d="M13.529,11.879h.826V5.833q0-.335-.126-.4a2.218,2.218,0,0,0-.7-.062V4.813l2.121-.1v.592a2.91,2.91,0,0,1,1.817-.592,2.8,2.8,0,0,1,2.051.755,2.64,2.64,0,0,1,.767,1.967,2.556,2.556,0,0,1-.835,2,3.145,3.145,0,0,1-2.188.751,2.33,2.33,0,0,1-1.535-.545v2.238h.826v.563q-1.008-.036-1.512-.035t-1.512.035Zm2.2-3.174a.859.859,0,0,0,.017.228.92.92,0,0,0,.111.17,1.612,1.612,0,0,0,1.272.649,1.454,1.454,0,0,0,1.143-.57,2.671,2.671,0,0,0,.48-1.747,2.8,2.8,0,0,0-.422-1.659,1.261,1.261,0,0,0-1.055-.582,1.846,1.846,0,0,0-1.371.567.777.777,0,0,0-.155.188.713.713,0,0,0-.02.216Z"/></svg>